<svg id="Layer_1" data-name="Layer 1" xmlns="http://www.w3.org/2000/svg" viewBox="0 0 589.8 227.79"><defs><style>.cls-1{fill:#ee2c3a;}.cls-2{fill:#fff;}</style></defs><title>Justin for Senate</title><path class="cls-1" d="M68.52,119c0,19.43-8.85,30.78-16.16,36.93-8.85,7.5-21.16,11.54-34.63,11.54a69.1,69.1,0,0,1-9-.58V144a35.3,35.3,0,0,0,9,1.15c8.27,0,15.39-2.31,20.39-6.35C43.32,134.36,46,127.63,46,119V24.71H68.52V119Z" transform="translate(-8.69 -17.98)"/><path class="cls-1" d="M113,156.1a42.32,42.32,0,0,1-12.7-15.39A48.06,48.06,0,0,1,95.45,119V24.71h22.31V119c0,8.46,3.08,15,8.85,19.43,5.39,4.23,13.27,6.73,21.74,6.73,8.27,0,16.16-2.5,21.74-6.73,5.77-4.42,8.66-11,8.66-19.43V24.71h22.51V119a50.71,50.71,0,0,1-4.81,21.74,46.56,46.56,0,0,1-12.7,15.39c-9.43,7.31-21.93,11.35-35.4,11.35S122.38,163.41,113,156.1Z" transform="translate(-8.69 -17.98)"/><path class="cls-1" d="M300.71,138.79c-4,13.85-16.54,24.82-32.13,27.89a43.9,43.9,0,0,1-8.66.77A46.28,46.28,0,0,1,243,164.37a56.44,56.44,0,0,1-23.66-18.27L237,132.25c4,5.39,8.85,9.23,14,11.16a21.92,21.92,0,0,0,13.08,1.15c7.31-1.35,13.27-6.16,15-11.93,1.92-6.54-2.5-12.31-6.54-16.16-6.35-6-16.74-16.16-17.51-16.93L237.61,83a40.7,40.7,0,0,1-11-17.12,30.56,30.56,0,0,1-.38-18.08,32.53,32.53,0,0,1,10.58-16A37.19,37.19,0,0,1,254,23.75a38,38,0,0,1,21.16,1.54,48.11,48.11,0,0,1,19.43,14.43L277,53.76c-7.31-8.85-14.81-8.85-18.85-8.08-5,1-9.23,4.23-10.39,8.27-0.77,2.69-.58,7.12,5.39,12.89L277,89.73c3.46,3.46,7.69,7.5,10.77,10.39a42.73,42.73,0,0,1,12.5,18.66A33.8,33.8,0,0,1,300.71,138.79Z" transform="translate(-8.69 -17.98)"/><path class="cls-1" d="M413.82,44.72H374.58V167.45H352.07V44.72H312.83v-20h101v20Z" transform="translate(-8.69 -17.98)"/><path class="cls-1" d="M434.4,167.45V24.71h22.31V167.45H434.4Z" transform="translate(-8.69 -17.98)"/><path class="cls-1" d="M508.66,75.69v91.76H486.34V18L576,116.28V24.71h22.51V174Z" transform="translate(-8.69 -17.98)"/><path class="cls-2" d="M226.72,214.7h17.76v6.88H226.72v22h-7.6V194.9h29.24v6.82H226.72v13Z" transform="translate(-8.69 -17.98)"/><path class="cls-2" d="M267.55,241.64a24.3,24.3,0,0,1-14.88-22.42,24.85,24.85,0,0,1,1.9-9.5,25.64,25.64,0,0,1,5.24-7.74,23.94,23.94,0,0,1,7.73-5.18,24.28,24.28,0,0,1,9.44-1.9,24.84,24.84,0,0,1,9.5,1.9,24,24,0,0,1,12.91,12.91,24.86,24.86,0,0,1,1.9,9.5,24.28,24.28,0,0,1-1.9,9.44,23.94,23.94,0,0,1-5.18,7.74,25.64,25.64,0,0,1-7.74,5.24,24.85,24.85,0,0,1-9.5,1.9A24.29,24.29,0,0,1,267.55,241.64Zm-2.36-34.22A16.62,16.62,0,1,0,277,202.5,16.62,16.62,0,0,0,265.19,207.42Z" transform="translate(-8.69 -17.98)"/><path class="cls-2" d="M343.92,243.54h-8.59l-12.26-16.45H317.5v16.45h-7.6V194.9h14.42c6.42,0,10.16,2.62,12.13,4.85a18,18,0,0,1,0,22.48A13.61,13.61,0,0,1,330.8,226Zm-19.6-23.27c3.15,0,5.51-.92,7-2.62a9.66,9.66,0,0,0,2.16-6.62c0-2-.33-4.72-2.16-6.69-1.51-1.7-3.87-2.56-7-2.56H317.5v18.49h6.82Z" transform="translate(-8.69 -17.98)"/><path class="cls-2" d="M397.33,233.77a14.09,14.09,0,0,1-10.95,9.5,15,15,0,0,1-3,.26,15.77,15.77,0,0,1-5.77-1,19.24,19.24,0,0,1-8.06-6.23l6-4.72a10.84,10.84,0,0,0,4.79,3.8,7.47,7.47,0,0,0,4.46.39,6.44,6.44,0,0,0,5.11-4.06c0.66-2.23-.85-4.2-2.23-5.51-2.16-2-5.7-5.51-6-5.77l-6-5.64a13.86,13.86,0,0,1-3.74-5.83,10.41,10.41,0,0,1-.13-6.16,11.09,11.09,0,0,1,3.61-5.44,12.68,12.68,0,0,1,5.83-2.75,13,13,0,0,1,7.21.52,16.4,16.4,0,0,1,6.62,4.92l-6,4.79c-2.49-3-5-3-6.42-2.75a4.46,4.46,0,0,0-3.54,2.82c-0.26.92-.2,2.43,1.84,4.39l8.13,7.8c1.18,1.18,2.62,2.56,3.67,3.54A14.57,14.57,0,0,1,397.2,227,11.52,11.52,0,0,1,397.33,233.77Z" transform="translate(-8.69 -17.98)"/><path class="cls-2" d="M412.8,214.7h17.76v6.88H412.8v15.08h21.57v6.88H405.2V194.9h29.17v6.82H412.8v13Z" transform="translate(-8.69 -17.98)"/><path class="cls-2" d="M450.95,212.27v31.27h-7.6V192.61l30.55,33.5V194.9h7.67v50.87Z" transform="translate(-8.69 -17.98)"/><path class="cls-2" d="M518.07,233.12H500.76l-4.13,10.42h-8.39l21.17-50.87,21.11,50.87H522.2Zm-2.75-6.82-5.9-14.81-5.9,14.81h11.8Z" transform="translate(-8.69 -17.98)"/><path class="cls-2" d="M561.85,201.72H548.48v41.82h-7.67V201.72H527.44V194.9h34.41v6.82Z" transform="translate(-8.69 -17.98)"/><path class="cls-2" d="M576.47,214.7h17.76v6.88H576.47v15.08H598v6.88H568.86V194.9H598v6.82H576.47v13Z" transform="translate(-8.69 -17.98)"/></svg>